<svg xmlns="http://www.w3.org/2000/svg" viewBox="0 0 16 16" aria-hidden="true" focusable="false" role="presentation">
    <path d="M15.952 4.702a5.87 5.87 0 0 0-.372-1.942 3.921 3.921 0 0 0-.923-1.417A3.92 3.92 0 0 0 13.24.42a5.874 5.874 0 0 0-1.942-.372L8 0 4.702.048A5.874 5.874 0 0 0 2.76.42a3.92 3.92 0 0 0-1.417.923A3.921 3.921 0 0 0 .42 2.76a5.87 5.87 0 0 0-.372 1.942L0 8l.048 3.298A5.87 5.87 0 0 0 .42 13.24a3.921 3.921 0 0 0 .923 1.417 3.922 3.922 0 0 0 1.417.923 5.874 5.874 0 0 0 1.942.372L8 16l3.298-.048a5.874 5.874 0 0 0 1.942-.372 4.091 4.091 0 0 0 2.34-2.34 5.87 5.87 0 0 0 .372-1.942L16 8l-.048-3.298zm-1.44 6.53a4.427 4.427 0 0 1-.276 1.486 2.649 2.649 0 0 1-1.518 1.518 4.425 4.425 0 0 1-1.486.275L8 14.56c-2.136 0-2.39-.008-3.233-.047a4.425 4.425 0 0 1-1.486-.275 2.479 2.479 0 0 1-.92-.598 2.48 2.48 0 0 1-.598-.92 4.427 4.427 0 0 1-.276-1.486L1.44 8l.047-3.233a4.426 4.426 0 0 1 .276-1.485 2.479 2.479 0 0 1 .598-.92 2.48 2.48 0 0 1 .92-.598 4.429 4.429 0 0 1 1.486-.275L8 1.44l3.233.047a4.429 4.429 0 0 1 1.486.275 2.479 2.479 0 0 1 .92.598 2.478 2.478 0 0 1 .598.92 4.426 4.426 0 0 1 .276 1.485L14.56 8l-.047 3.233zM8 3.892A4.108 4.108 0 1 0 12.108 8 4.108 4.108 0 0 0 8 3.892zm0 6.775A2.667 2.667 0 1 1 10.667 8 2.667 2.667 0 0 1 8 10.667zm4.27-7.897a.96.96 0 1 0 .96.96.96.96 0 0 0-.96-.96z"></path>
</svg>