<svg width="36" height="46" viewBox="0 0 36 46" fill="none" xmlns="http://www.w3.org/2000/svg">
    <path d="M32.961 17.701C33.041 17.888 33.041 18.207 32.935 18.633C32.696 19.563 32.562 20.2 32.509 20.546C32.243 22.46 31.419 23.603 30.011 23.976C29.744 24.055 29.505 24.082 29.32 24.082C29.373 24.241 29.4 24.348 29.4 24.374H29.346L29.107 24.082C28.814 24.082 28.468 24.028 28.07 23.895L29.08 25.331V25.411H29.002C28.922 25.411 28.496 24.852 27.726 23.763C27.646 23.737 27.247 23.524 26.556 23.152C25.945 23.657 25.625 24.135 25.625 24.588C25.625 24.774 25.679 24.96 25.784 25.146C26.13 25.731 26.077 26.342 25.598 27.007C25.385 27.14 25.146 27.459 24.854 28.017C24.88 28.097 24.854 28.256 24.801 28.496C24.801 28.682 24.826 28.814 24.906 28.947C25.517 28.76 26.236 28.814 27.058 29.106C27.484 29.266 27.829 29.293 28.096 29.212C28.309 29.132 28.627 29 29.078 28.786C29.318 28.654 29.531 28.6 29.717 28.6C29.93 28.6 30.035 28.706 30.035 28.946C30.035 29.132 29.982 29.398 29.849 29.69C29.424 30.727 29.265 31.392 29.344 31.684C29.583 32.561 29.344 33.518 28.626 34.555C28.228 35.139 27.723 35.432 27.164 35.406C26.658 35.38 26.074 35.326 25.463 35.246C25.117 35.193 24.532 35.14 23.762 35.114C22.991 35.087 22.565 35.326 22.432 35.857C22.14 37.187 21.821 38.462 21.475 39.685C21.449 39.872 21.317 40.589 21.103 41.866C20.917 42.902 20.678 43.513 20.385 43.7C19.934 43.992 19.455 44.125 18.924 44.125C18.471 44.125 17.94 44.099 17.356 44.072C16.983 43.966 16.611 43.912 16.265 43.912C16.079 43.912 15.893 43.939 15.68 43.966C15.334 44.019 15.149 43.912 15.149 43.647C15.149 43.488 15.202 43.275 15.335 43.009C15.681 42.026 15.814 41.308 15.761 40.909C15.735 40.616 15.788 40.324 15.947 40.005C16.187 39.554 16.32 39.261 16.345 39.128C16.612 38.065 16.851 37.134 17.091 36.363C17.116 36.176 17.144 36.016 17.144 35.884C17.144 35.325 16.745 35.06 15.974 35.06C15.814 35.06 15.335 35.114 14.565 35.22C14.06 35.245 13.475 35.406 12.81 35.725C12.705 36.071 12.597 36.389 12.492 36.707C12.12 37.451 11.64 38.595 11.029 40.137V40.429C11.004 40.509 10.976 40.563 10.924 40.589C10.924 41.068 10.844 41.705 10.685 42.476L10.791 45.481L10.631 45.853H10.392L9.595 43.672C9.249 43.752 8.771 43.885 8.134 44.018C7.469 44.152 6.91101 44.072 6.43201 43.779C6.19301 43.62 5.9 43.541 5.608 43.541C5.316 43.541 5.02398 43.62 4.70398 43.753C4.88998 43.62 5.18299 42.637 5.58099 40.829C5.71399 39.739 6.03299 38.728 6.53799 37.772C6.56399 37.745 6.77701 37.32 7.12201 36.522C7.44101 35.831 7.362 35.432 6.883 35.326C6.431 35.221 6.13798 35.246 6.00598 35.432C5.95298 35.511 5.873 35.565 5.767 35.565C5.607 35.565 5.395 35.485 5.129 35.326C4.89 35.221 4.332 35.007 3.401 34.688C3.161 34.608 2.949 34.555 2.789 34.555C2.497 34.555 2.36398 34.688 2.36398 34.98C2.36398 35.114 2.39 35.273 2.444 35.459C2.311 35.061 2.258 34.715 2.258 34.423C2.258 33.705 2.576 33.174 3.241 32.828C3.321 32.535 3.37399 32.189 3.37399 31.817C3.37399 31.578 3.34801 31.286 3.29401 30.94C3.18801 30.221 3.42699 29.664 4.01199 29.265C4.11899 29.238 4.22499 29.211 4.33099 29.211C4.48999 29.211 4.65 29.265 4.81 29.345C5.607 28.785 6.352 28.6 7.043 28.733C7.867 28.893 8.31898 28.972 8.39798 29C8.58498 29 8.79701 28.973 9.01001 28.894C9.03601 28.309 9.03601 27.883 9.01001 27.645C8.98401 27.485 9.14298 27.085 9.51498 26.449C9.56798 26.342 9.595 26.289 9.595 26.315L9.46201 24.986L9.595 24.853V24.747L9.51498 23.737C8.66398 23.842 7.70798 24.029 6.64398 24.295C6.43198 24.349 6.246 24.375 6.112 24.375C5.368 24.375 5.049 23.817 5.129 22.727C5.182 22.169 5.47499 21.504 6.03299 20.734C6.59199 19.963 6.90999 19.325 6.98999 18.873C7.17599 17.784 7.97299 17.225 9.35599 17.225C9.38199 17.172 9.409 17.146 9.436 17.146L9.27701 17.013V16.907L9.436 15.976H8.85098C8.61198 15.976 8.372 16.374 8.134 17.146L1.35498 16.667C1.43498 16.428 1.54098 16.162 1.67398 15.843L0.69101 15.737H0V15.471H1.54199L1.78101 15.232C3.29601 15.337 5.051 15.392 6.991 15.392L6.06 15.604V15.737L7.04401 15.817L7.89499 15.737L8.34698 15.817L7.36398 15.392C7.68198 15.392 8.427 15.445 8.746 15.445H9.59698V14.754L9.27899 14.515H9.146L8.93399 14.967L8.508 14.595L6.59399 14.541C5.07799 14.515 3.77598 14.435 2.71298 14.302L2.793 14.276L2.634 14.196L2.87299 13.824L2.793 13.718L2.767 13.452H3.03299V13.213H2.87299L0.587006 13.133V12.867H3.45898C3.45898 12.257 4.14999 11.804 5.55899 11.565V11.431C3.29899 10.5 1.94398 9.809 1.54498 9.41V9.30402H1.625L4.41599 10.607L4.57498 10.474H4.70801L5.133 10.767L5.39899 10.474C6.14299 11.113 6.88798 11.431 7.60498 11.431C7.60498 11.245 7.92399 11.085 8.58899 10.952V11.085L8.74799 11.564L8.45599 11.802V11.935L9.28101 12.281V12.122L9.14798 10.606L9.44 8.69299L9.28101 8.32101L9.67899 7.89502L9.54599 6.88501L9.38699 4.25299L9.54599 3.95999L9.38699 2.711L9.67899 0H9.91901L10.158 2.47202L10.877 3.95999L11.168 6.22L10.558 7.151L11.089 9.25101H10.797V9.41L10.691 10.473C10.691 10.952 10.823 11.191 11.089 11.191V11.324L10.232 13.208C11.162 13.447 11.64 13.633 11.64 13.793L11.482 13.899C11.88 13.899 12.146 14.058 12.305 14.378L12.172 14.511H11.88L10.232 13.661V14.033H9.94V13.794H9.83398V13.9L9.94 14.272L9.83398 14.378L10.1 15.814L9.94 15.973L11.641 16.053H12.465V16.292L11.295 16.239L10.605 16.318L10.631 17.594C10.791 17.673 10.95 17.699 11.11 17.699C11.536 17.699 11.987 17.434 12.493 16.902H12.466V16.769L12.732 16.529C12.972 16.211 13.211 15.732 13.503 15.121C13.849 14.297 14.034 13.579 14.034 12.941C14.034 12.622 13.955 12.17 13.768 11.612C13.609 11.107 13.582 10.681 13.663 10.309C13.955 8.97999 14.858 8.31601 16.347 8.31601C16.614 8.31601 16.906 8.34202 17.199 8.36902C18.076 8.50202 18.928 9.14 19.804 10.336C19.937 10.523 19.883 11.027 19.591 11.852C19.458 12.224 19.273 12.782 19.006 13.5C18.847 14.19 18.634 14.988 18.368 15.893C18.049 16.955 18.315 17.514 19.165 17.54C19.431 17.566 19.909 17.594 20.601 17.62L21.212 17.673C22.036 17.753 22.542 17.54 22.675 17.062C23.126 16.025 23.657 14.458 24.269 12.304C24.349 11.692 24.482 11.108 24.615 10.549C24.803 9.77801 25.519 9.29901 26.717 9.08701C27.168 9.00701 28.125 8.92799 29.587 8.89999C29.985 8.87399 30.251 8.97999 30.384 9.16699C30.517 9.35299 30.491 9.61799 30.331 9.98999C30.013 10.761 29.746 11.319 29.56 11.612C29.374 11.984 29.242 12.595 29.162 13.446C29.082 14.217 28.924 14.828 28.631 15.254C28.338 15.653 28.205 16.185 28.205 16.796C28.205 17.142 28.072 17.567 28.924 17.753C29.11 17.78 29.403 17.859 29.801 17.94C30.093 18.072 30.36 18.152 30.598 18.152C30.758 18.152 30.917 18.099 31.104 17.993C31.397 17.806 31.822 17.674 32.379 17.541C32.669 17.461 32.881 17.515 32.961 17.701ZM2.789 15.84V15.734L2.07098 15.601L2.36301 15.84H2.789ZM3.02798 15.601C3.02798 15.788 3.50598 15.92 4.46298 15.973V15.814L4.17099 15.601H3.02798ZM13.634 42.61H13.741L14.059 42.849V42.928H13.899L13.633 42.715V42.61H13.634ZM19.722 26.607C20.12 26.288 20.333 26.022 20.333 25.836C20.333 25.73 20.28 25.623 20.147 25.543C20.014 25.543 20.092 25.49 20.413 25.384C20.2 24.933 19.854 24.401 19.402 23.842C18.924 23.842 18.579 23.948 18.339 24.162C18.206 24.294 18.047 24.348 17.914 24.348C17.834 24.348 17.727 24.322 17.622 24.268C17.382 24.135 17.143 24.109 16.931 24.242C16.825 24.322 16.533 24.295 16.08 24.163C15.788 24.083 15.655 24.188 15.655 24.428C15.655 24.615 15.708 24.854 15.841 25.146C15.788 25.04 15.655 25.28 15.468 25.837C15.363 26.156 15.31 26.369 15.31 26.476C15.31 26.529 15.335 26.555 15.363 26.555C15.389 26.555 15.416 26.555 15.443 26.529C15.123 26.662 14.964 26.741 14.964 26.768C15.069 27.14 15.202 27.273 15.362 27.193C15.282 27.273 14.698 27.247 14.698 27.38C14.698 27.406 14.698 27.46 14.723 27.486L15.175 27.858C15.121 28.017 15.016 28.097 14.829 28.097C14.988 28.31 15.068 28.469 15.068 28.549C15.042 28.628 14.988 28.655 14.909 28.628C14.67 28.628 14.537 28.734 14.511 28.947C14.511 28.973 14.537 28.973 14.564 28.973C14.618 28.973 14.67 28.947 14.751 28.92L15.097 28.574C15.202 29 15.335 29.398 15.495 29.744C15.601 29.61 15.734 29.212 15.893 28.548C16.106 28.707 16.212 28.92 16.212 29.212C16.424 29.079 16.531 28.841 16.531 28.548C16.743 28.734 16.929 28.946 17.062 29.212C17.062 28.973 17.167 28.733 17.38 28.548C17.513 28.548 17.593 28.894 17.698 28.894C17.805 28.867 17.886 28.76 17.938 28.548C17.912 28.361 17.938 28.281 18.018 28.281C18.098 28.281 18.177 28.308 18.231 28.361C18.577 28.707 18.922 28.92 19.214 29.026C19.426 29.105 19.559 28.759 19.613 28.042L19.722 26.607ZM29.001 26.261V26.34L27.405 24.692V24.587C27.75 24.587 28.096 24.959 28.495 25.677C28.68 25.703 28.867 25.915 29.001 26.261ZM28.708 6.45599C28.495 6.45599 28.389 6.29702 28.389 5.95102H28.468L28.389 5.81702V5.73801L28.468 4.56799H28.628V5.60501L28.788 5.95102V6.05701L28.708 6.13602L28.788 6.26901V6.45599H28.708ZM29.186 6.45599L29.026 6.72299L28.867 6.45599L29.026 6.26901L29.186 6.45599ZM30.089 17.249H29.797L29.557 16.93L29.876 16.531H30.089L30.248 16.771V17.063L30.089 17.249ZM29.797 39.287L30.195 38.889V39.075C30.195 39.209 30.062 39.341 29.797 39.421V39.287ZM30.356 44.949L30.514 44.763H30.727V44.949H30.356ZM30.94 4.03799L30.514 3.64001V3.48001H30.727L31.126 3.95901V4.039H30.94V4.03799ZM30.94 27.644H31.1L31.418 28.095V28.175H31.338L30.94 27.776V27.644ZM31.605 9.78L31.818 9.939V10.258C31.818 10.444 31.605 10.55 31.206 10.603L31.127 10.47V10.391C31.26 9.99199 31.366 9.78 31.446 9.78H31.605ZM33.385 7.12201V7.30801H31.526V7.12201H33.385ZM33.28 40.429V40.084H33.438V40.429H33.28Z" fill="#B20A0B"/>
    <path d="M22.3039 31.2471L22.0699 32.7491L21.6259 34.1191L21.3719 35.7021L21.1949 35.9461L21.0819 35.9201L21.2989 34.4951L20.9359 34.4091L20.8719 34.6801L20.8449 35.8631L20.5869 36.9501L20.3509 36.8941L20.2589 37.2851L20.3309 38.0381L20.7349 37.3961L20.8459 37.4221L19.6369 42.5501L19.2119 42.7771L19.1699 40.8801L19.3339 40.1831C19.7229 40.2751 19.9799 40.0881 20.0899 39.6231L20.1919 39.1941C19.9519 39.1381 19.8709 38.5871 19.9589 37.5411L20.1239 36.8421L20.6059 35.8071C20.3539 35.7471 20.3559 34.8461 20.6119 33.1411L20.3859 33.0871L20.5499 32.3911L20.6509 32.4141L20.7509 33.1731L20.9509 32.7731L21.0769 32.8011L21.4009 34.0671L21.4739 33.7571L22.2189 30.0361L22.9079 27.6181L22.2929 28.6591L22.1799 28.6341L22.5059 26.7421L22.8439 26.4931L22.8239 26.2411L23.0899 25.1151L23.5349 24.8501L23.4819 24.5111L23.8389 22.9951L24.0659 23.0491L23.3689 26.0021L23.4749 25.7791L23.5869 25.8041L22.3039 31.2471Z" fill="white"/>
    <path d="M24.325 21.111C24.299 20.945 24.144 20.751 23.877 20.542L23.906 20.415L24.054 20.345L24.281 20.399L24.359 20.522L24.497 20.555L24.625 20.015L24.486 19.983L24.566 19.645L24.792 19.698L24.748 19.886L24.885 19.919L24.557 21.312L24.419 21.28L24.375 21.468L24.1479 21.414L24.225 21.088L24.325 21.111Z" fill="white"/>
    <path d="M12.7829 30.4641C12.8179 30.0371 12.7259 29.58 12.5149 29.131L12.5959 28.787L12.7849 28.542L13.0109 28.596L13.0479 28.894L13.1859 28.926L13.5349 27.447L13.3959 27.415L13.6149 26.488L13.8419 26.542L13.7209 27.057L13.8589 27.0891L12.9579 30.905L12.8209 30.873L12.6989 31.388L12.4729 31.334L12.6839 30.44L12.7829 30.4641Z" fill="white"/>
    <path d="M25.6261 15.067L25.5137 15.5449L25.7395 15.598L25.8519 15.1201L25.6261 15.067Z" fill="white"/>
    <path d="M24.6299 19.368L24.7159 19.002L24.8839 19.3069L24.7689 19.3999L24.6299 19.368Z" fill="white"/>
    <path d="M19.9141 37.5459L20.0471 37.4309L20.0701 37.3309L19.9971 37.1939L20.2111 37.2449C20.2581 37.0439 20.2061 36.9259 20.0681 36.8919L20.1451 36.5659L20.3841 36.6229L20.5561 36.9009L20.4521 37.3399L20.2771 37.2989L20.411 37.5159L20.3791 37.6549L20.1001 37.8279L19.9141 37.5459Z" fill="white"/>
    <path d="M15.4431 21.18V21.684L15.2231 22.109L15.218 22.638L15.0831 22.699L14.972 22.673L14.9641 22.194L14.601 22.108L14.58 22.196L14.7321 22.617L14.6501 22.968L14.412 22.912L14.3831 23.038L14.5681 23.319L14.86 23.15L14.9711 23.176L14.58 24.833L14.205 24.851L13.877 24.163L13.9311 23.937C14.3211 24.029 14.539 24 14.575 23.85L14.6071 23.712C14.3691 23.655 14.2061 23.445 14.1331 23.083L14.1861 22.856L14.4951 22.558C14.2431 22.498 14.1081 22.175 14.0981 21.602L13.8721 21.548L13.925 21.323L14.0271 21.346L14.2371 21.633L14.369 21.52L14.4961 21.549L15.0001 22.052L15.023 21.952L15.179 20.729L15.4781 19.965L15.041 20.246L14.9281 20.219L14.9561 19.59L15.244 19.552L15.1861 19.458L15.2721 19.094L15.6631 19.067L15.5611 18.938L15.6761 18.448L15.9021 18.502L15.6761 19.456L15.7451 19.392L15.8571 19.419L15.4431 21.18Z" fill="white"/>
    <path d="M16.1609 16.5651C16.1339 16.3991 15.9799 16.2051 15.7129 15.9961L15.7419 15.8701L15.8909 15.7991L16.1169 15.8531L16.1939 15.9771L16.3319 16.0091L16.4589 15.4701L16.3209 15.4371L16.3999 15.0991L16.6269 15.1521L16.5829 15.3401L16.7209 15.3721L16.3929 16.7661L16.2539 16.7341L16.2089 16.9221L15.9829 16.8681L16.0599 16.5421L16.1609 16.5651Z" fill="white"/>
    <path d="M17.479 10.5101L17.3657 10.9878L17.5915 11.0413L17.7048 10.5636L17.479 10.5101Z" fill="white"/>
    <path d="M16.4661 14.8221L16.5521 14.4561L16.718 14.7611L16.6041 14.8541L16.4661 14.8221Z" fill="white"/>
    <path d="M11.476 35.3879C11.45 35.2209 11.2961 35.0269 11.0291 34.8179L11.058 34.6919L11.2071 34.6219L11.433 34.6759L11.5101 34.7999L11.648 34.8319L11.7751 34.2919L11.6381 34.2589L11.718 33.9209L11.9431 33.9749L11.898 34.1629L12.037 34.1949L11.7081 35.5889L11.5701 35.5559L11.5251 35.7439L11.299 35.6909L11.3761 35.3639L11.476 35.3879Z" fill="white"/>
    <path d="M11.75 33L11.883 32.884L11.906 32.785L11.833 32.648L12.045 32.698C12.094 32.498 12.043 32.379 11.904 32.346L11.98 32.02L12.218 32.077L12.391 32.355L12.287 32.795L12.112 32.753L12.245 32.97L12.212 33.109L11.935 33.282L11.75 33Z" fill="white"/>
    <path d="M9.30588 19.7351L9.74286 19.4841L10.2209 19.4631L10.6839 19.2031L10.8029 19.2901L10.8359 19.4001L10.4239 19.6431L10.5309 20.0021L10.6159 19.9761L10.9049 19.6351L11.2509 19.5321L11.3209 19.7661L11.4449 19.7291L11.5969 19.4291L11.3059 19.2591L11.2729 19.1491L12.9049 18.6641L13.1069 18.9811L12.6729 19.6081L12.4499 19.6731C12.3369 19.2891 12.2039 19.1141 12.0549 19.1571L11.9179 19.1981C11.9879 19.4321 11.8859 19.6781 11.6069 19.9231L11.3839 19.9891L10.9719 19.8681C11.0459 20.1171 10.8329 20.3941 10.3409 20.6881L10.4069 20.9121L10.1839 20.9771L10.1549 20.8771L10.2999 20.5511L10.1359 20.4931L10.0989 20.3701L10.2849 19.6821L10.1849 19.7111L9.04788 20.1831L8.23587 20.3041L8.69687 20.5431L8.72986 20.6541L8.16986 20.9411L7.99286 20.7111L7.94089 20.8081L7.58188 20.9141L7.36487 20.5891L7.30289 20.7411L6.81989 20.8841L6.75488 20.6621L7.69489 20.3831L7.60486 20.3551L7.57187 20.2451L9.30588 19.7351Z" fill="white"/>
    <path d="M28.4281 5.48804L27.4711 5.36502H23.7361V5.21805H27.9381L28.1341 5.04605L28.6251 5.12003H30.9101L30.7151 4.84903L30.9101 4.67603C32.2131 4.67603 33.3181 4.84904 34.1791 5.21704L34.7931 5.11905C35.4811 5.14305 35.8261 5.24104 35.8261 5.36404L35.7261 5.48703H34.5961L34.3011 5.68304H33.0721V5.75705H34.5961L34.7191 6.19904H27.6161L27.5671 5.92804L28.4261 5.68204V5.48804H28.4281Z" fill="#B20A0B"/>
</svg>