<svg xmlns="http://www.w3.org/2000/svg" viewBox="0 0 16 16" aria-hidden="true" focusable="false" role="presentation">
    <path d="M15.84 4.8a3.461 3.461 0 0 0-.636-1.588 2.288 2.288 0 0 0-1.603-.678l-5.605-.162-5.598.162a2.289 2.289 0 0 0-1.603.678A3.46 3.46 0 0 0 .16 4.801 24.194 24.194 0 0 0 0 7.391v1.214a24.193 24.193 0 0 0 .16 2.59 3.461 3.461 0 0 0 .636 1.588 2.713 2.713 0 0 0 1.764.684c1.28.123 5.44.16 5.44.16l5.6-.167a2.288 2.288 0 0 0 1.603-.678 3.461 3.461 0 0 0 .636-1.588 24.229 24.229 0 0 0 .16-2.59V7.39a24.231 24.231 0 0 0-.16-2.589zm-9.492 5.274L6.347 5.58l4.323 2.256z"></path>
</svg>