<svg preserveAspectRatio="xMidYMid meet" xmlns="http://www.w3.org/2000/svg" width="20" height="20" fill="none" viewBox="0 0 32 32"><!--?lit$9743952402$--><g><path d="M30.4 16.628c0-1-.08-2.003-.254-2.986H16.29V19.3h7.935a6.8 6.8 0 0 1-2.937 4.465v3.67h4.735c2.78-2.559 4.377-6.337 4.377-10.806Z" fill="#4285F4"></path><path d="M16.29 30.98c3.962 0 7.303-1.3 9.738-3.546l-4.734-3.67c-1.317.896-3.018 1.403-4.998 1.403-3.833 0-7.082-2.586-8.248-6.062H3.163v3.784A14.692 14.692 0 0 0 16.29 30.98Z" fill="#34A853"></path><path d="M8.042 19.105a8.8 8.8 0 0 1 0-5.625V9.697h-4.88a14.703 14.703 0 0 0 0 13.192l4.88-3.784Z" fill="#FBBC04"></path><path d="M16.29 7.413a7.983 7.983 0 0 1 5.635 2.203l4.195-4.194A14.12 14.12 0 0 0 16.29 1.6 14.687 14.687 0 0 0 3.163 9.697l4.88 3.784c1.16-3.482 4.415-6.068 8.247-6.068Z" fill="#EA4335"></path></g></svg>