<svg width="50" height="41" viewBox="0 0 50 41" fill="none" xmlns="http://www.w3.org/2000/svg">
<path d="M16.1217 37.809V38.1107H11.5489H10.9182C10.6286 38.1107 10.3793 37.9966 10.1695 37.7653C9.95793 37.5388 9.85377 37.2659 9.85377 36.9524V36.7375C9.85377 36.6802 9.82678 36.6517 9.77558 36.6517H9.69664C9.0127 37.0808 8.30353 37.4232 7.56913 37.6811C7.14822 37.8248 6.70757 37.9319 6.24794 38.0036C5.78781 38.0737 5.3734 38.1107 5.0057 38.1107C4.40119 38.1107 3.84888 38.0244 3.35053 37.8527C2.82496 37.6813 2.37733 37.4093 2.01037 37.0383C1.64167 36.6376 1.34017 36.1366 1.10486 35.536C0.867299 34.9362 0.749645 34.2057 0.749645 33.3482V23.5655V23.4366V21.292V20.7343C0.749645 20.3628 0.578278 20.1763 0.236305 20.1763H0V19.8763H4.5728H5.20328C5.49205 19.8763 5.73985 19.9906 5.95118 20.2189C6.16226 20.4481 6.26817 20.7343 6.26817 21.0778V22.2788V23.4796V24.123V34.1631C6.26817 34.964 6.39857 35.6066 6.66061 36.0926C6.89816 36.4949 7.21315 36.7521 7.60683 36.8673C7.9488 36.9522 8.34249 36.9242 8.78988 36.7801C9.02669 36.6947 9.22278 36.6089 9.38165 36.5219C9.53853 36.4664 9.65668 36.3591 9.73612 36.2004C9.8143 36.0438 9.85377 35.8777 9.85377 35.7068V23.4364V21.2918V20.7341C9.85377 20.3625 9.68315 20.1761 9.34218 20.1761H9.06616V19.8761H13.6779H14.2692C14.5844 19.8761 14.8462 19.9903 15.0566 20.2187C15.2664 20.4479 15.3721 20.7341 15.3721 21.0776V22.2786V23.4794V33.5619V36.6945V37.2518C15.3721 37.6233 15.5427 37.8086 15.8854 37.8086H16.1217V37.809Z" fill="#C10505"/>
<path d="M37.344 21.3015V34.3743V34.8761V37.252C37.344 37.6485 37.4924 37.8467 37.7876 37.8467H37.977V38.1673H32.3156V37.8467H32.5052C32.7792 37.8467 32.9163 37.6485 32.9163 37.252V34.8761V34.3743V23.5856V20.2501V19.6565C32.9163 19.2614 32.7792 19.0616 32.5052 19.0616H32.3156V18.7421H35.9846H36.4899C36.7228 18.7421 36.9218 18.864 37.091 19.1083C37.2606 19.3521 37.344 19.6566 37.344 20.0218V21.3015ZM36.458 13.8633C36.0531 13.4559 35.5642 13.2519 34.9912 13.2519C34.4176 13.2519 33.9288 13.4559 33.5236 13.8633C33.1187 14.2704 32.9161 14.7622 32.9161 15.3387C32.9161 15.9149 33.1187 16.4076 33.5236 16.8145C33.9288 17.2223 34.4176 17.4261 34.9912 17.4261C35.5642 17.4261 36.0531 17.2223 36.458 16.8145C36.8629 16.4076 37.067 15.9149 37.067 15.3387C37.067 14.7622 36.8629 14.2704 36.458 13.8633Z" fill="#C10505"/>
<path d="M34.827 19.5899H33V34.595C33 36.1886 32.14 37.5543 30.4204 38.6934C28.701 39.8333 26.6234 40.4031 24.1869 40.4031C21.7746 40.4031 19.703 39.8333 17.9714 38.6934C16.2413 37.5543 15.3745 36.1886 15.3745 34.595V24.3693C15.3745 21.9427 17.0944 20.1736 20.5334 19.0616C17.0942 18.0246 15.3745 16.2653 15.3745 13.783V5.80762C15.3745 4.21426 16.2413 2.84876 17.9714 1.70902C19.703 0.569752 21.7746 0 24.1869 0C26.6234 0 28.701 0.569752 30.4204 1.70902C32.14 2.84876 33 4.21426 33 5.80762V12.2264H27.1238V3.30678C27.1238 2.67735 26.8373 2.13975 26.264 1.69514C25.6922 1.25077 24.9992 1.02824 24.1872 1.02824C23.3751 1.02824 22.6824 1.25077 22.1091 1.69514C21.5361 2.13975 21.249 2.67735 21.249 3.30678V16.2829C21.249 16.9128 21.5361 17.4504 22.1091 17.895C22.6824 18.3396 23.3751 18.5619 24.1872 18.5619H34.8275V19.5899H34.827ZM27.1235 37.0963V19.5897H24.1867C23.3746 19.5897 22.6819 19.8122 22.1086 20.2566C21.5356 20.701 21.2485 21.2388 21.2485 21.868V37.0963C21.2485 37.726 21.5356 38.264 22.1086 38.7086C22.6819 39.153 23.3746 39.3751 24.1867 39.3751C24.9988 39.3751 25.6917 39.153 26.2635 38.7086C26.837 38.264 27.1235 37.726 27.1235 37.0963Z" fill="black"/>
<path d="M37.3493 18.5744H27.2637V19.9358H37.3493V18.5744Z" fill="black"/>
<path d="M46.2191 11.5526V14.5031H50V16.1363H46.2191V19.1002H44.1357V16.1363H40.3383V14.5031H44.1357V11.5526H46.2191Z" fill="#C10505"/>
</svg>
